<svg width="24" height="24" viewBox="0 0 24 24" fill="none" xmlns="http://www.w3.org/2000/svg">
<path d="M23.5 19C23.5 19.3978 23.342 19.7794 23.0607 20.0607C22.7794 20.342 22.3978 20.5 22 20.5H7.07036C6.56883 20.5 6.10049 20.2494 5.82229 19.8321L0.785831 12.2775C0.673863 12.1095 0.673862 11.8907 0.785831 11.7228L5.8223 4.16814C6.10049 3.75085 6.56883 3.50021 7.07035 3.5002L22 3.5C22.3978 3.5 22.7794 3.65804 23.0607 3.93934C23.342 4.22064 23.5 4.60218 23.5 5V19Z" stroke="#C8D3E0" stroke-linecap="round" stroke-linejoin="round"/>
<path d="M10.875 8.875L17.125 15.125M17.125 8.875L10.875 15.125" stroke="#C8D3E0" stroke-width="1.5" stroke-linecap="round"/>
</svg>
