<svg width="32" height="32" viewBox="0 0 32 32" fill="none" xmlns="http://www.w3.org/2000/svg">
<path fill-rule="evenodd" clip-rule="evenodd" d="M12.0625 8.6875C12.2117 8.6875 12.3548 8.74676 12.4602 8.85225C12.5657 8.95774 12.625 9.10082 12.625 9.25V10.375H19.375V9.25C19.375 9.10082 19.4343 8.95774 19.5398 8.85225C19.6452 8.74676 19.7883 8.6875 19.9375 8.6875C20.0867 8.6875 20.2298 8.74676 20.3352 8.85225C20.4407 8.95774 20.5 9.10082 20.5 9.25V10.375H21.0625C21.6592 10.375 22.2315 10.6121 22.6535 11.034C23.0754 11.456 23.3125 12.0283 23.3125 12.625V21.0625C23.3125 21.6592 23.0754 22.2315 22.6535 22.6535C22.2315 23.0754 21.6592 23.3125 21.0625 23.3125H10.9375C10.3408 23.3125 9.76847 23.0754 9.34651 22.6535C8.92455 22.2315 8.6875 21.6592 8.6875 21.0625V12.625C8.6875 12.0283 8.92455 11.456 9.34651 11.034C9.76847 10.6121 10.3408 10.375 10.9375 10.375H11.5V9.25C11.5 9.10082 11.5593 8.95774 11.6648 8.85225C11.7702 8.74676 11.9133 8.6875 12.0625 8.6875ZM22.1875 15.4375C22.1875 15.1391 22.069 14.853 21.858 14.642C21.647 14.431 21.3609 14.3125 21.0625 14.3125H10.9375C10.6391 14.3125 10.353 14.431 10.142 14.642C9.93103 14.853 9.8125 15.1391 9.8125 15.4375V21.0625C9.8125 21.3609 9.93103 21.647 10.142 21.858C10.353 22.069 10.6391 22.1875 10.9375 22.1875H21.0625C21.3609 22.1875 21.647 22.069 21.858 21.858C22.069 21.647 22.1875 21.3609 22.1875 21.0625V15.4375Z" fill="#6C7A8B"/>
</svg>
