<svg width="116" height="64" viewBox="0 0 116 64" fill="none" xmlns="http://www.w3.org/2000/svg">
    <g id="img/no_contacts">
        <path id="Vector"
            d="M14.5505 39.6191C15.7715 59.4286 30.8312 63.6191 38.2084 63.2381H77.511C82.09 63.2381 92.8505 61.3333 99.261 53.7143C105.672 46.0952 96.59 38.8571 91.2479 36.1905C94.8093 32 100.406 21.5619 94.3005 13.3333C86.6689 3.04763 65.6821 -1.90476 53.4715 8.00001C43.7031 15.9238 47.3663 30.0952 50.4189 36.1905C46.6031 32.7619 13.0241 14.8572 14.5505 39.6191Z"
            fill="#ECF5FE" />
        <path id="Vector_2"
            d="M41.6828 16.8134C42.4121 14.0962 45.2109 12.4813 47.9359 13.2103L87.0051 23.6616C89.7295 24.3904 91.3439 27.1849 90.6148 29.9015L84.2941 53.4517C83.5649 56.1689 80.766 57.7838 78.041 57.0548L38.9718 46.6035C36.2474 45.8747 34.6331 43.0802 35.3622 40.3636L41.6828 16.8134Z"
            fill="white" stroke="#AFD6FA" strokeWidth="2" />
        <path id="Vector_3"
            d="M44.2405 46.7742C36.5293 49.1988 12.9469 40.6062 15.5045 29.1966C16.7738 23.5343 21.6636 21.2782 27.1348 21.1291M27.1348 21.1291C37.347 20.8508 49.5847 27.9136 44.0838 33.8691C38.5909 39.816 26.8929 32.0821 27.1348 21.1291ZM27.1348 21.1291C27.2649 15.2367 30.8507 8.41258 40.7171 2.28571"
            stroke="#AFD6FA" strokeWidth="2" strokeLinecap="round" stroke-dasharray="4 4" />
        <path id="Vector_4"
            d="M32.2895 33.5238C32.2895 30.7113 34.5736 28.4286 37.3948 28.4286H77.8421C80.6632 28.4286 82.9474 30.7113 82.9474 33.5238V57.9048C82.9474 60.7172 80.6632 63 77.8421 63H37.3948C34.5736 63 32.2895 60.7172 32.2895 57.9048V33.5238Z"
            fill="white" stroke="#AFD6FA" strokeWidth="2" />
        <ellipse id="Vector_5" cx="83.1842" cy="32" rx="8.39474" ry="8.38095" fill="#EE3939" />
        <path id="Vector_6"
            d="M80.1316 31.9753C80.1316 30.5503 80.3586 29.4384 80.8126 28.6394C81.2744 27.8322 82.0649 27.4286 83.1842 27.4286C84.3035 27.4286 85.0902 27.8322 85.5441 28.6394C86.006 29.4384 86.2369 30.5503 86.2369 31.9753C86.2369 33.4167 86.006 34.5452 85.5441 35.3606C85.0902 36.1678 84.3035 36.5714 83.1842 36.5714C82.0649 36.5714 81.2744 36.1678 80.8126 35.3606C80.3586 34.5452 80.1316 33.4167 80.1316 31.9753ZM84.9219 31.9753C84.9219 31.3081 84.8788 30.7439 84.7927 30.2826C84.7145 29.8214 84.5501 29.4466 84.2996 29.1583C84.0491 28.8618 83.6773 28.7135 83.1842 28.7135C82.6911 28.7135 82.3193 28.8618 82.0688 29.1583C81.8184 29.4466 81.6501 29.8214 81.564 30.2826C81.4857 30.7439 81.4466 31.3081 81.4466 31.9753C81.4466 32.6672 81.4857 33.2479 81.564 33.7174C81.6423 34.1869 81.8066 34.5658 82.0571 34.8541C82.3154 35.1423 82.6911 35.2865 83.1842 35.2865C83.6773 35.2865 84.0491 35.1423 84.2996 34.8541C84.5579 34.5658 84.7262 34.1869 84.8045 33.7174C84.8827 33.2479 84.9219 32.6672 84.9219 31.9753Z"
            fill="white" />
        <path id="Vector_7"
            d="M49.9872 45.0204C46.844 45.0204 44.3096 42.4872 44.3096 39.3912C44.3096 36.2876 46.8433 33.7619 49.9872 33.7619C53.1311 33.7619 55.6648 36.2876 55.6648 39.3911C55.6649 42.4872 53.1304 45.0204 49.9872 45.0204ZM49.9868 48.9609C52.0876 48.9609 55.301 49.4911 57.9637 50.5486C59.2944 51.0772 60.4244 51.7129 61.2055 52.4284C61.98 53.1378 62.3421 53.8558 62.3421 54.5901V56.579C62.3421 56.7521 62.1988 56.9048 62.0067 56.9048H37.9671C37.7749 56.9048 37.6316 56.7521 37.6316 56.579V54.5901C37.6316 53.8558 37.9937 53.1378 38.7682 52.4284C39.5493 51.7129 40.6793 51.0772 42.01 50.5486C44.6727 49.4911 47.886 48.9609 49.9868 48.9609Z"
            fill="white" stroke="#AFD6FA" strokeWidth="2" />
        <path id="Vector_8" d="M61.0526 42.6667H77.8421" stroke="#AFD6FA" strokeWidth="2"
            strokeLinecap="round" />
        <path id="Vector_9" d="M61.0526 47.2381H71.7369" stroke="#AFD6FA" strokeWidth="2"
            strokeLinecap="round" />
    </g>
</svg>