<svg width="28" height="28" viewBox="0 0 28 28" fill="none" xmlns="http://www.w3.org/2000/svg">
<path fill-rule="evenodd" clip-rule="evenodd" d="M3.27502 13.9994C3.27502 8.07591 8.07652 3.27441 14 3.27441C19.9235 3.27441 24.725 8.07591 24.725 13.9994C24.725 19.9229 19.9235 24.7244 14 24.7244C8.07652 24.7244 3.27502 19.9229 3.27502 13.9994ZM18.7014 12.9181C18.8941 13.0254 19.0546 13.1822 19.1664 13.3723C19.2782 13.5624 19.3371 13.7789 19.3371 13.9994C19.3371 14.2199 19.2782 14.4365 19.1664 14.6266C19.0546 14.8167 18.8941 14.9735 18.7014 15.0807L12.5381 18.505C12.3498 18.6096 12.1374 18.6631 11.9221 18.6604C11.7067 18.6577 11.4957 18.5989 11.3101 18.4897C11.1244 18.3804 10.9705 18.2247 10.8635 18.0377C10.7565 17.8508 10.7001 17.6391 10.7 17.4237V10.5751C10.7 9.63241 11.7131 9.03511 12.5381 9.49381L18.7014 12.9181Z" fill="#0C6DC7"/>
</svg>
