<svg width="16" height="16" viewBox="0 0 16 16" fill="none" xmlns="http://www.w3.org/2000/svg">
    <g id="line / settings">
        <path id="Vector" fill-rule="evenodd" clip-rule="evenodd"
            d="M7.85333 1.3335H8.14667C8.50029 1.3335 8.83943 1.47397 9.08948 1.72402C9.33953 1.97407 9.48 2.31321 9.48 2.66683V2.78683C9.48024 3.02065 9.54196 3.25029 9.65898 3.45272C9.77599 3.65515 9.94418 3.82325 10.1467 3.94016L10.4333 4.10683C10.636 4.22385 10.866 4.28546 11.1 4.28546C11.3341 4.28546 11.564 4.22385 11.7667 4.10683L11.8667 4.0535C12.1726 3.877 12.5361 3.82913 12.8773 3.92037C13.2186 4.01161 13.5096 4.23452 13.6867 4.54016L13.8333 4.7935C14.0098 5.09945 14.0577 5.46294 13.9665 5.80416C13.8752 6.14539 13.6523 6.43646 13.3467 6.6135L13.2467 6.6735C13.0432 6.79097 12.8744 6.96012 12.7573 7.16382C12.6402 7.36753 12.5791 7.59855 12.58 7.8335V8.16683C12.5791 8.40178 12.6402 8.6328 12.7573 8.8365C12.8744 9.04021 13.0432 9.20936 13.2467 9.32683L13.3467 9.38016C13.6523 9.5572 13.8752 9.84827 13.9665 10.1895C14.0577 10.5307 14.0098 10.8942 13.8333 11.2002L13.6867 11.4602C13.5096 11.7658 13.2186 11.9887 12.8773 12.08C12.5361 12.1712 12.1726 12.1233 11.8667 11.9468L11.7667 11.8935C11.564 11.7765 11.3341 11.7149 11.1 11.7149C10.866 11.7149 10.636 11.7765 10.4333 11.8935L10.1467 12.0602C9.94418 12.1771 9.77599 12.3452 9.65898 12.5476C9.54196 12.75 9.48024 12.9797 9.48 13.2135V13.3335C9.48 13.6871 9.33953 14.0263 9.08948 14.2763C8.83943 14.5264 8.50029 14.6668 8.14667 14.6668H7.85333C7.49971 14.6668 7.16057 14.5264 6.91053 14.2763C6.66048 14.0263 6.52 13.6871 6.52 13.3335V13.2135C6.51976 12.9797 6.45804 12.75 6.34103 12.5476C6.22401 12.3452 6.05583 12.1771 5.85333 12.0602L5.56667 11.8935C5.36398 11.7765 5.13405 11.7149 4.9 11.7149C4.66595 11.7149 4.43603 11.7765 4.23333 11.8935L4.13333 11.9468C3.82738 12.1233 3.46389 12.1712 3.12267 12.08C2.78145 11.9887 2.49037 11.7658 2.31333 11.4602L2.16667 11.2068C1.99018 10.9009 1.9423 10.5374 2.03354 10.1962C2.12478 9.85494 2.34769 9.56386 2.65333 9.38683L2.75333 9.32683C2.95681 9.20936 3.12563 9.04021 3.2427 8.8365C3.35977 8.6328 3.42093 8.40178 3.42 8.16683V7.82683C3.4186 7.59414 3.35632 7.36588 3.23937 7.16472C3.12241 6.96356 2.95485 6.7965 2.75333 6.68016L2.65333 6.6135C2.34769 6.43646 2.12478 6.14539 2.03354 5.80416C1.9423 5.46294 1.99018 5.09945 2.16667 4.7935L2.31333 4.54016C2.49037 4.23452 2.78145 4.01161 3.12267 3.92037C3.46389 3.82913 3.82738 3.877 4.13333 4.0535L4.23333 4.10683C4.43603 4.22385 4.66595 4.28546 4.9 4.28546C5.13405 4.28546 5.36398 4.22385 5.56667 4.10683L5.85333 3.94016C6.05583 3.82325 6.22401 3.65515 6.34103 3.45272C6.45804 3.25029 6.51976 3.02065 6.52 2.78683V2.66683C6.52 2.31321 6.66048 1.97407 6.91053 1.72402C7.16057 1.47397 7.49971 1.3335 7.85333 1.3335ZM10 8C10 9.10457 9.10457 10 8 10C6.89543 10 6 9.10457 6 8C6 6.89543 6.89543 6 8 6C9.10457 6 10 6.89543 10 8Z"
            stroke="#6C7A8B" strokeWidth="1.5" stroke-linecap="round" stroke-linejoin="round" />
    </g>
</svg>