<svg width="40" height="40" viewBox="0 0 40 40" fill="none" xmlns="http://www.w3.org/2000/svg">
    <path fillRule="evenodd" clipRule="evenodd"
        d="M21.25 10.833V3.33301H10C8.15905 3.33301 6.66667 4.82539 6.66667 6.66634V33.333C6.66667 35.174 8.15905 36.6663 10 36.6663H30C31.8409 36.6663 33.3333 35.174 33.3333 33.333V15.4163H25.8333C23.302 15.4163 21.25 13.3643 21.25 10.833ZM11.6667 23.7497C11.6667 23.0593 12.2263 22.4997 12.9167 22.4997H25.4167C26.107 22.4997 26.6667 23.0593 26.6667 23.7497C26.6667 24.44 26.107 24.9997 25.4167 24.9997H12.9167C12.2263 24.9997 11.6667 24.44 11.6667 23.7497ZM11.6667 29.583C11.6667 28.8927 12.2263 28.333 12.9167 28.333H18.75C19.4404 28.333 20 28.8927 20 29.583C20 30.2734 19.4404 30.833 18.75 30.833H12.9167C12.2263 30.833 11.6667 30.2734 11.6667 29.583Z"
        fill="white" />
    <path
        d="M23.75 10.833V3.8591C23.9507 3.98758 24.1385 4.13819 24.3096 4.30932L32.357 12.3567C32.5282 12.5278 32.6788 12.7157 32.8072 12.9163H25.8333C24.6827 12.9163 23.75 11.9836 23.75 10.833Z"
        fill="white" />
</svg>