<svg width="178" height="16" viewBox="0 0 178 16" fill="none" xmlns="http://www.w3.org/2000/svg">
<rect y="6" width="3" height="10" rx="1" fill="#3B9EF7"/>
<rect x="5.64516" width="3" height="16" rx="1" fill="#3B9EF7"/>
<rect x="11.2903" y="3" width="3" height="13" rx="1" fill="#3B9EF7"/>
<rect x="16.9355" y="10" width="3" height="6" rx="1" fill="#3B9EF7"/>
<rect x="22.5806" y="3" width="3" height="13" rx="1" fill="#3B9EF7"/>
<rect x="28.2258" y="10" width="3" height="6" rx="1" fill="#3B9EF7"/>
<rect x="33.871" y="6" width="3" height="10" rx="1" fill="#3B9EF7"/>
<rect x="39.5161" width="3" height="16" rx="1" fill="#3B9EF7"/>
<rect x="45.1613" y="3" width="3" height="13" rx="1" fill="#3B9EF7"/>
<rect x="50.8064" y="10" width="3" height="6" rx="1" fill="#3B9EF7"/>
<rect x="56.4516" y="3" width="3" height="13" rx="1" fill="#3B9EF7"/>
<rect x="62.0968" width="3" height="16" rx="1" fill="#3B9EF7"/>
<rect x="67.7419" y="3" width="3" height="13" rx="1" fill="#3B9EF7"/>
<rect x="73.3871" y="6" width="3" height="10" rx="1" fill="#3B9EF7"/>
<rect x="79.0323" y="3" width="3" height="13" rx="1" fill="#3B9EF7"/>
<rect x="84.6774" y="10" width="3" height="6" rx="1" fill="#3B9EF7"/>
<rect x="90.3226" y="8" width="3" height="8" rx="1" fill="#3B9EF7"/>
<rect x="95.9678" y="10" width="3" height="6" rx="1" fill="#3B9EF7"/>
<rect x="101.613" y="6" width="3" height="10" rx="1" fill="#3B9EF7"/>
<rect x="107.258" y="8" width="3" height="8" rx="1" fill="#3B9EF7"/>
<rect x="112.903" y="3" width="3" height="13" rx="1" fill="#3B9EF7"/>
<rect x="118.548" y="10" width="3" height="6" rx="1" fill="#3B9EF7"/>
<rect x="124.194" y="3" width="3" height="13" rx="1" fill="#3B9EF7"/>
<rect x="129.839" y="3" width="3" height="13" rx="1" fill="#3B9EF7"/>
<rect x="135.484" y="8" width="3" height="8" rx="1" fill="#3B9EF7"/>
<rect x="141.129" y="11" width="3" height="5" rx="1" fill="#3B9EF7"/>
<rect x="146.774" y="3" width="3" height="13" rx="1" fill="#3B9EF7"/>
<rect x="152.419" y="10" width="3" height="6" rx="1" fill="#3B9EF7"/>
<rect x="158.065" y="3" width="3" height="13" rx="1" fill="#3B9EF7"/>
<rect x="163.71" y="3" width="3" height="13" rx="1" fill="#3B9EF7"/>
<rect x="169.355" y="8" width="3" height="8" rx="1" fill="#3B9EF7"/>
<rect x="175" y="11" width="3" height="5" rx="1" fill="#3B9EF7"/>
</svg>
