<svg width="180" height="16" viewBox="0 0 180 16" fill="none" xmlns="http://www.w3.org/2000/svg">
<rect y="6" width="3" height="10" rx="1" fill="#91A0B5"/>
<rect x="5.70969" width="3" height="16" rx="1" fill="#91A0B5"/>
<rect x="11.4193" y="3" width="3" height="13" rx="1" fill="#91A0B5"/>
<rect x="17.129" y="10" width="3" height="6" rx="1" fill="#91A0B5"/>
<rect x="22.8387" y="3" width="3" height="13" rx="1" fill="#91A0B5"/>
<rect x="28.5484" y="10" width="3" height="6" rx="1" fill="#91A0B5"/>
<rect x="34.2581" y="6" width="3" height="10" rx="1" fill="#91A0B5"/>
<rect x="39.9677" width="3" height="16" rx="1" fill="#91A0B5"/>
<rect x="45.6774" y="3" width="3" height="13" rx="1" fill="#91A0B5"/>
<rect x="51.3871" y="10" width="3" height="6" rx="1" fill="#91A0B5"/>
<rect x="57.0968" y="3" width="3" height="13" rx="1" fill="#91A0B5"/>
<rect x="62.8065" width="3" height="16" rx="1" fill="#91A0B5"/>
<rect x="68.5161" y="3" width="3" height="13" rx="1" fill="#91A0B5"/>
<rect x="74.2258" y="6" width="3" height="10" rx="1" fill="#91A0B5"/>
<rect x="79.9355" y="3" width="3" height="13" rx="1" fill="#91A0B5"/>
<rect x="85.6452" y="10" width="3" height="6" rx="1" fill="#91A0B5"/>
<rect x="91.3549" y="8" width="3" height="8" rx="1" fill="#91A0B5"/>
<rect x="97.0645" y="10" width="3" height="6" rx="1" fill="#91A0B5"/>
<rect x="102.774" y="6" width="3" height="10" rx="1" fill="#91A0B5"/>
<rect x="108.484" y="8" width="3" height="8" rx="1" fill="#91A0B5"/>
<rect x="114.194" y="3" width="3" height="13" rx="1" fill="#91A0B5"/>
<rect x="119.903" y="10" width="3" height="6" rx="1" fill="#91A0B5"/>
<rect x="125.613" y="3" width="3" height="13" rx="1" fill="#91A0B5"/>
<rect x="131.323" y="3" width="3" height="13" rx="1" fill="#91A0B5"/>
<rect x="137.032" y="8" width="3" height="8" rx="1" fill="#91A0B5"/>
<rect x="142.742" y="11" width="3" height="5" rx="1" fill="#91A0B5"/>
<rect x="148.452" y="3" width="3" height="13" rx="1" fill="#91A0B5"/>
<rect x="154.161" y="10" width="3" height="6" rx="1" fill="#91A0B5"/>
<rect x="159.871" y="3" width="3" height="13" rx="1" fill="#91A0B5"/>
<rect x="165.581" y="3" width="3" height="13" rx="1" fill="#91A0B5"/>
<rect x="171.29" y="8" width="3" height="8" rx="1" fill="#91A0B5"/>
<rect x="177" y="11" width="3" height="5" rx="1" fill="#91A0B5"/>
</svg>
