<svg width="16" height="16" viewBox="0 0 16 16" fill="none" xmlns="http://www.w3.org/2000/svg">
    <g id="status / afk">
        <path id="Vector AFK" fillRule="evenodd" clipRule="evenodd"
            d="M10.2857 1.14282C13.4416 1.14282 16 3.7012 16 6.85711C16 10.013 13.4416 12.5714 10.2857 12.5714H3.42857L0.97549 15.0245C0.61551 15.3845 0 15.1295 0 14.6204V6.85711C0 3.7012 2.55837 1.14282 5.71429 1.14282H10.2857ZM4.57143 7.99996C5.20261 7.99996 5.71429 7.48829 5.71429 6.85711C5.71429 6.22592 5.20261 5.71425 4.57143 5.71425C3.94025 5.71425 3.42857 6.22592 3.42857 6.85711C3.42857 7.48829 3.94025 7.99996 4.57143 7.99996ZM9.14286 6.85711C9.14286 7.48829 8.63118 7.99996 8 7.99996C7.36882 7.99996 6.85714 7.48829 6.85714 6.85711C6.85714 6.22592 7.36882 5.71425 8 5.71425C8.63118 5.71425 9.14286 6.22592 9.14286 6.85711ZM11.4286 7.99996C12.0598 7.99996 12.5714 7.48829 12.5714 6.85711C12.5714 6.22592 12.0598 5.71425 11.4286 5.71425C10.7974 5.71425 10.2857 6.22592 10.2857 6.85711C10.2857 7.48829 10.7974 7.99996 11.4286 7.99996Z"
            fill="#6C7A8B" />
    </g>
</svg>