<svg width="32" height="32" viewBox="0 0 32 32" fill="none" xmlns="http://www.w3.org/2000/svg">
    <circle cx="15.9999" cy="16.0004" r="10.6" fill="#EE3939" stroke="white" strokeWidth="2" />
    <path fillRule="evenodd" clipRule="evenodd"
        d="M17.3948 10.451C17.4729 10.4944 17.5342 10.5628 17.5689 10.6452C17.6036 10.7275 17.6097 10.8191 17.5863 10.9054L16.5239 14.8003H20.4002C20.4781 14.8003 20.5544 14.8231 20.6196 14.8659C20.6847 14.9086 20.736 14.9695 20.767 15.041C20.7981 15.1125 20.8076 15.1915 20.7943 15.2683C20.7811 15.3451 20.7457 15.4164 20.6924 15.4734L15.0924 21.4734C15.0314 21.5389 14.9502 21.582 14.8618 21.5959C14.7734 21.6098 14.6829 21.5937 14.6048 21.55C14.5266 21.5064 14.4654 21.4379 14.4308 21.3553C14.3962 21.2728 14.3903 21.181 14.414 21.0947L15.4764 17.2003H11.6002C11.5222 17.2003 11.446 17.1775 11.3808 17.1348C11.3156 17.092 11.2643 17.0311 11.2333 16.9596C11.2022 16.8881 11.1928 16.8091 11.206 16.7323C11.2193 16.6555 11.2547 16.5842 11.3079 16.5272L16.9079 10.5272C16.9689 10.462 17.05 10.419 17.1382 10.4052C17.2265 10.3914 17.3168 10.4075 17.3948 10.451Z"
        fill="white" />
</svg>