<svg width="32" height="32" viewBox="0 0 32 32" fill="none" xmlns="http://www.w3.org/2000/svg">
<path fill-rule="evenodd" clip-rule="evenodd" d="M9.84398 9.2035C11.8779 8.85928 13.9371 8.68667 16 8.6875C18.0977 8.6875 20.155 8.8645 22.1567 9.2035C22.481 9.2595 22.775 9.4285 22.9865 9.68056C23.1981 9.93261 23.3136 10.2514 23.3125 10.5805V11.3635C23.3124 11.9602 23.0752 12.5324 22.6532 12.9543L18.0167 17.5908C17.9123 17.6953 17.8294 17.8193 17.773 17.9559C17.7165 18.0924 17.6874 18.2387 17.6875 18.3865V20.5818C17.6876 20.9997 17.5713 21.4094 17.3517 21.7649C17.1321 22.1205 16.8178 22.4078 16.444 22.5948L15.1262 23.2533C15.0405 23.2961 14.9452 23.3163 14.8494 23.3119C14.7537 23.3076 14.6606 23.2788 14.5791 23.2284C14.4976 23.178 14.4303 23.1076 14.3836 23.0238C14.337 22.9401 14.3125 22.8459 14.3125 22.75V18.3865C14.3122 18.0882 14.1935 17.8023 13.9825 17.5915L9.34748 12.9535C8.9255 12.5316 8.68836 11.9594 8.68823 11.3628V10.5805C8.68823 9.90775 9.16748 9.31825 9.84398 9.2035Z" fill="#6C7A8B"/>
</svg>
