<svg width="18" height="18" viewBox="0 0 18 18" fill="none" xmlns="http://www.w3.org/2000/svg">
<g id="line / add_emoji" clip-path="url(#clip0_2254_30482)">
<path id="Vector" d="M16.5 8.24999V8.99999C16.4924 10.5137 16.0269 11.9897 15.1648 13.234C14.3026 14.4782 13.0841 15.4325 11.6695 15.9713C10.2549 16.5101 8.7103 16.6082 7.23887 16.2527C5.76744 15.8972 4.43801 15.1048 3.42536 13.9796C2.41271 12.8545 1.76423 11.4492 1.56519 9.9486C1.36614 8.44798 1.62584 6.92225 2.31014 5.57199C2.99445 4.22174 4.07132 3.11015 5.3992 2.38337C6.72708 1.65659 8.2438 1.34864 9.74997 1.49999M5.99997 10.5C5.99997 10.5 7.12497 12 8.99997 12C10.875 12 12 10.5 12 10.5M6.74997 6.74999H6.75685M11.25 6.74999H11.2568M12 3.74999H16.5M14.25 1.49999V5.99999" stroke="#6C7A8B" stroke-width="1.5" stroke-linecap="round" stroke-linejoin="round"/>
</g>
<defs>
<clipPath id="clip0_2254_30482">
<rect width="18" height="18" fill="white"/>
</clipPath>
</defs>
</svg>
