<svg width="36" height="36" viewBox="0 0 36 36" fill="none" xmlns="http://www.w3.org/2000/svg">
<path fill-rule="evenodd" clip-rule="evenodd" d="M18 32.3008C25.898 32.3008 32.3 25.8988 32.3001 18.0008C32.3001 10.1028 25.8981 3.70078 18.0001 3.70078C10.102 3.70078 3.70005 10.1028 3.70005 18.0008C3.70005 25.8988 10.102 32.3008 18 32.3008ZM23.8724 22.6136L18.0285 19.2742C17.0432 18.7112 17.0432 17.2904 18.0285 16.7274L23.8724 13.3881C24.8501 12.8293 26.0667 13.5353 26.0667 14.6615L26.0667 21.3401C26.0667 22.4663 24.8501 23.1723 23.8724 22.6136ZM15.0724 22.6136L9.22854 19.2742C8.24321 18.7112 8.24321 17.2904 9.22854 16.7274L15.0724 13.3881C16.0501 12.8293 17.2667 13.5353 17.2667 14.6615L17.2667 21.3401C17.2667 22.4663 16.0501 23.1723 15.0724 22.6136Z" fill="#C8D3E0"/>
</svg>
