<svg width="74" height="38" viewBox="0 0 74 38" fill="none" xmlns="http://www.w3.org/2000/svg">
<g id="ringplan_logo">
<g id="Vector">
<path d="M50.0448 1.46003e-08C51.0398 5.05625e-05 52.0124 0.29496 52.8397 0.847437C53.667 1.39991 54.3118 2.18515 54.6925 3.10384C55.0733 4.02253 55.1729 5.0334 54.9787 6.00865C54.7845 6.9839 54.3054 7.87971 53.6018 8.5828C52.8981 9.2859 52.0017 9.7647 51.0258 9.95865C50.0499 10.1526 49.0384 10.053 48.1191 9.67246C47.1999 9.2919 46.4142 8.64748 45.8614 7.82069C45.3086 6.99389 45.0136 6.02184 45.0136 5.02748C45.0136 4.36723 45.1437 3.71345 45.3966 3.10346C45.6494 2.49348 46.02 1.93923 46.4872 1.47238C46.9544 1.00553 47.509 0.63522 48.1195 0.382588C48.7299 0.129956 49.3841 -5.03024e-05 50.0448 1.46003e-08Z" fill="white"/>
<path d="M36.5993 5.3428C36.0332 4.96481 35.3677 4.76306 34.6869 4.76306C34.2349 4.76304 33.7873 4.852 33.3697 5.02486C32.952 5.19772 32.5726 5.4511 32.2529 5.77051C31.9333 6.08993 31.6798 6.46914 31.5068 6.88648C31.3338 7.30382 31.2447 7.75113 31.2447 8.20287C31.2447 8.88323 31.4466 9.54831 31.8248 10.114C32.203 10.6797 32.7406 11.1207 33.3696 11.381C33.9985 11.6414 34.6906 11.7096 35.3584 11.5768C36.0261 11.4441 36.6395 11.1165 37.1209 10.6354C37.6023 10.1544 37.9301 9.54142 38.063 8.87413C38.1958 8.20685 38.1276 7.51519 37.8671 6.88662C37.6066 6.25805 37.1654 5.72079 36.5993 5.3428Z" fill="white"/>
<path d="M23.3013 8.99681C23.7203 8.99683 24.1298 9.12101 24.4782 9.35364C24.8265 9.58626 25.098 9.9169 25.2583 10.3037C25.4186 10.6905 25.4606 11.1162 25.3788 11.5268C25.2971 11.9375 25.0953 12.3147 24.799 12.6107C24.5028 12.9068 24.1253 13.1084 23.7144 13.19C23.3035 13.2717 22.8776 13.2298 22.4905 13.0695C22.1035 12.9093 21.7726 12.638 21.5399 12.2899C21.3071 11.9417 21.1829 11.5324 21.1829 11.1138C21.1829 10.8357 21.2376 10.5604 21.3441 10.3036C21.4506 10.0467 21.6066 9.81334 21.8033 9.61676C22 9.42018 22.2336 9.26425 22.4906 9.15788C22.7477 9.0515 23.0231 8.99678 23.3013 8.99681Z" fill="white"/>
<path d="M14.122 12.969C13.8607 12.7945 13.5535 12.7014 13.2393 12.7014C12.818 12.7015 12.4139 12.8688 12.116 13.1665C11.818 13.4642 11.6506 13.868 11.6506 14.2891C11.6506 14.6031 11.7438 14.9101 11.9184 15.1712C12.0929 15.4323 12.3411 15.6358 12.6314 15.7559C12.9217 15.8761 13.2411 15.9075 13.5493 15.8463C13.8575 15.785 14.1405 15.6338 14.3627 15.4118C14.5849 15.1897 14.7362 14.9068 14.7975 14.5989C14.8588 14.2909 14.8274 13.9716 14.7071 13.6815C14.5869 13.3914 14.3832 13.1435 14.122 12.969Z" fill="white"/>
<path d="M71.0443 26.3201V21.1753C71.0443 19.9361 70.4702 19.3001 69.4916 19.3001C68.513 19.3001 67.8875 19.9365 67.8875 21.1753V26.3201H65.321V17.0973H67.8874V18.4051C68.4779 17.6311 69.2383 16.9256 70.5379 16.9256C72.4793 16.9256 73.6105 18.2333 73.6105 20.3493V26.3197L71.0443 26.3201Z" fill="white"/>
<path fill-rule="evenodd" clip-rule="evenodd" d="M60.6275 25.322C60.0031 26.0275 59.1415 26.4922 57.8918 26.4922C56.1872 26.4922 54.7855 25.4942 54.7855 23.6702V23.636C54.7855 21.6229 56.2879 20.6939 58.4322 20.6939C59.186 20.6871 59.935 20.8152 60.6437 21.0722V20.9174C60.6437 19.8334 59.9848 19.2311 58.7023 19.2311C57.7226 19.2311 57.0305 19.4206 56.2033 19.7294L55.5619 17.7337C56.5581 17.2865 57.5372 16.9941 59.0735 16.9941C60.4747 16.9941 61.4878 17.3724 62.1287 18.0263C62.804 18.7148 63.108 19.7294 63.108 20.9685V26.3196H60.6275V25.322ZM60.6778 22.6035C60.1632 22.3722 59.6047 22.2548 59.0404 22.2593C57.9431 22.2593 57.268 22.7065 57.268 23.5326V23.5671C57.268 24.2724 57.8416 24.6853 58.6688 24.6853C59.8677 24.6853 60.678 24.0144 60.678 23.0683L60.6778 22.6035Z" fill="white"/>
<path d="M50.3459 13.7597H52.9121V26.32H50.3459V13.7597Z" fill="white"/>
<path fill-rule="evenodd" clip-rule="evenodd" d="M43.7948 22.707H41.8198V26.3205H39.2194V14.2755H44.0479C46.8674 14.2755 48.5726 15.979 48.5726 18.4393V18.4738C48.5726 21.2614 46.4452 22.707 43.7948 22.707ZM45.9389 18.4912C45.9389 17.304 45.1285 16.6676 43.8287 16.6676H41.8197V20.3497H43.8795C45.1793 20.3497 45.9389 19.5577 45.9389 18.5257V18.4912Z" fill="white"/>
<path fill-rule="evenodd" clip-rule="evenodd" d="M31.6052 29.1073C30.2124 29.1204 28.838 28.7894 27.604 28.1436L28.482 26.1824C29.4027 26.7406 30.4604 27.0324 31.5372 27.0256C33.2932 27.0256 34.1202 26.1652 34.1202 24.5132V24.0661C33.3607 24.9952 32.5334 25.5631 31.1657 25.5631C29.0556 25.5631 27.1477 23.9975 27.1477 21.2616V21.2275C27.1477 18.4743 29.0892 16.926 31.1657 16.926C32.5672 16.926 33.3944 17.528 34.0867 18.3023V17.0976H36.6529V24.2388C36.6529 25.8908 36.2647 27.0949 35.5046 27.8695C34.661 28.7287 33.361 29.1073 31.6052 29.1073ZM34.1208 21.2271C34.1208 19.9709 33.1585 19.0937 31.9092 19.0937C30.6599 19.0937 29.7145 19.9712 29.7145 21.2271V21.2612C29.7145 22.5344 30.6604 23.3946 31.9092 23.3946C33.158 23.3946 34.1208 22.5171 34.1208 21.2612V21.2271Z" fill="white"/>
<path d="M22.7586 21.1753C22.7586 19.9361 22.1847 19.3001 21.2053 19.3001C20.226 19.3001 19.6013 19.9365 19.6013 21.1753V26.3201H17.0354V17.0973H19.6011V18.4051C20.1924 17.6311 20.952 16.9256 22.252 16.9256C24.1936 16.9256 25.3248 18.2333 25.3248 20.3493V26.3197H22.7585L22.7586 21.1753Z" fill="white"/>
<path d="M12.0547 17.0973H14.621V26.3201H12.0547V17.0973Z" fill="white"/>
<path fill-rule="evenodd" clip-rule="evenodd" d="M7.17557 26.3201L4.6428 22.4659H2.60014V26.3201H0V14.2755H5.40251C6.90507 14.2755 8.07015 14.7057 8.84661 15.4973C9.50521 16.1686 9.85982 17.1146 9.85982 18.2503V18.2848C9.85982 20.2289 8.82973 21.4507 7.32718 22.0184L10.2142 26.32L7.17557 26.3201ZM7.2267 18.388C7.2267 17.2524 6.44985 16.6676 5.18366 16.6676H2.60014V20.1264H5.23352C6.49907 20.1264 7.2258 19.438 7.2258 18.4229L7.2267 18.388Z" fill="white"/>
<path d="M66.7327 32.6076H67.4591V36.0601H66.7327V32.6076Z" fill="white"/>
<path fill-rule="evenodd" clip-rule="evenodd" d="M52.8312 34.3664C53.0175 34.4254 53.1634 34.5246 53.2689 34.6642C53.3744 34.8007 53.4272 34.9698 53.4272 35.1714C53.4272 35.4568 53.3155 35.677 53.092 35.8321C52.8716 35.9841 52.5488 36.0601 52.1235 36.0601H50.4381V32.8031H52.0304C52.4277 32.8031 52.7319 32.8791 52.943 33.0311C53.1572 33.1831 53.2643 33.3893 53.2643 33.6499C53.2643 33.8081 53.2255 33.9492 53.1479 34.0733C53.0734 34.1974 52.9678 34.2951 52.8312 34.3664ZM51.1877 33.3707V34.1385H51.9373C52.1235 34.1385 52.2648 34.1059 52.361 34.0407C52.4572 33.9756 52.5053 33.8794 52.5053 33.7523C52.5053 33.6251 52.4572 33.5305 52.361 33.4684C52.2648 33.4033 52.1235 33.3707 51.9373 33.3707H51.1877ZM52.0677 35.4925C52.2663 35.4925 52.4153 35.4599 52.5146 35.3947C52.6171 35.3296 52.6683 35.2288 52.6683 35.0923C52.6683 34.8224 52.4681 34.6875 52.0677 34.6875H51.1877V35.4925H52.0677Z" fill="white"/>
<path d="M56.4333 33.5568L55.3019 36.2137C55.1871 36.5021 55.0443 36.7053 54.8736 36.8232C54.706 36.9411 54.5027 37 54.2636 37C54.1333 37 54.0045 36.9798 53.8772 36.9395C53.7499 36.8992 53.646 36.8434 53.5653 36.772L53.8306 36.2555C53.8865 36.3052 53.9501 36.3439 54.0215 36.3719C54.096 36.3998 54.169 36.4137 54.2404 36.4137C54.3397 36.4137 54.4204 36.3889 54.4825 36.3393C54.5446 36.2928 54.6004 36.2137 54.6501 36.102L54.6594 36.0787L53.5746 33.5568H54.3242L55.0272 35.2552L55.7349 33.5568H56.4333Z" fill="white"/>
<path d="M60.7394 36.0601V35.4459H58.8864L60.6696 33.2916V32.8031H57.9272V33.4172H59.6779L57.89 35.5716V36.0601H60.7394Z" fill="white"/>
<path d="M61.8983 33.4172H60.8554V32.8031H63.6955V33.4172H62.6526V36.0601H61.8983V33.4172Z" fill="white"/>
<path fill-rule="evenodd" clip-rule="evenodd" d="M66.2352 35.0132C66.2445 34.8922 66.2492 34.8271 66.2492 34.8178C66.2492 34.5572 66.1918 34.3292 66.0769 34.1338C65.9652 33.9353 65.81 33.7833 65.6113 33.6778C65.4127 33.5723 65.1907 33.5196 64.9455 33.5196C64.6941 33.5196 64.466 33.5755 64.2611 33.6871C64.0593 33.7957 63.8995 33.9492 63.7815 34.1478C63.6667 34.3432 63.6093 34.5634 63.6093 34.8085C63.6093 35.0566 63.6682 35.2784 63.7862 35.4738C63.9041 35.6693 64.0717 35.8228 64.289 35.9345C64.5063 36.043 64.7562 36.0973 65.0386 36.0973C65.4918 36.0973 65.8364 35.9624 66.0723 35.6925L65.6858 35.2738C65.5989 35.3575 65.5042 35.4196 65.4018 35.4599C65.3025 35.4971 65.1876 35.5157 65.0573 35.5157C64.8679 35.5157 64.7096 35.4707 64.5824 35.3808C64.4551 35.2908 64.3744 35.1683 64.3402 35.0132H66.2352ZM64.5358 34.2082C64.6475 34.1152 64.7857 34.0687 64.9502 34.0687C65.1116 34.0687 65.2482 34.1167 65.3599 34.2129C65.4716 34.306 65.5399 34.4316 65.5648 34.5898H64.3309C64.3558 34.4285 64.424 34.3013 64.5358 34.2082Z" fill="white"/>
<path d="M68.6221 35.9345C68.8362 36.043 69.0768 36.0973 69.3437 36.0973C69.6076 36.0973 69.8373 36.0415 70.0328 35.9298C70.2315 35.8182 70.3758 35.6631 70.4658 35.4645L69.9025 35.1574C69.7752 35.387 69.5874 35.5018 69.3391 35.5018C69.1497 35.5018 68.993 35.4397 68.8688 35.3156C68.7447 35.1916 68.6826 35.0225 68.6826 34.8085C68.6826 34.5944 68.7447 34.4254 68.8688 34.3013C68.993 34.1772 69.1497 34.1152 69.3391 34.1152C69.5843 34.1152 69.7721 34.23 69.9025 34.4595L70.4658 34.1571C70.3758 33.9523 70.2315 33.7957 70.0328 33.6871C69.8373 33.5755 69.6076 33.5196 69.3437 33.5196C69.0768 33.5196 68.8362 33.5755 68.6221 33.6871C68.411 33.7957 68.2449 33.9477 68.1239 34.1431C68.0059 34.3385 67.9469 34.5603 67.9469 34.8085C67.9469 35.0566 68.0059 35.2784 68.1239 35.4738C68.2449 35.6693 68.411 35.8228 68.6221 35.9345Z" fill="white"/>
<path fill-rule="evenodd" clip-rule="evenodd" d="M72.0441 36.0973C71.7803 36.0973 71.5428 36.043 71.3318 35.9345C71.1238 35.8228 70.9608 35.6693 70.8429 35.4738C70.7249 35.2784 70.6659 35.0566 70.6659 34.8085C70.6659 34.5603 70.7249 34.3385 70.8429 34.1431C70.9608 33.9477 71.1238 33.7957 71.3318 33.6871C71.5428 33.5755 71.7803 33.5196 72.0441 33.5196C72.308 33.5196 72.5439 33.5755 72.7518 33.6871C72.9598 33.7957 73.1227 33.9477 73.2407 34.1431C73.3587 34.3385 73.4176 34.5603 73.4176 34.8085C73.4176 35.0566 73.3587 35.2784 73.2407 35.4738C73.1227 35.6693 72.9598 35.8228 72.7518 35.9345C72.5439 36.043 72.308 36.0973 72.0441 36.0973ZM72.0441 35.5018C72.2304 35.5018 72.3824 35.4397 72.5004 35.3156C72.6215 35.1885 72.682 35.0194 72.682 34.8085C72.682 34.5975 72.6215 34.43 72.5004 34.306C72.3824 34.1788 72.2304 34.1152 72.0441 34.1152C71.8579 34.1152 71.7042 34.1788 71.5832 34.306C71.4621 34.43 71.4016 34.5975 71.4016 34.8085C71.4016 35.0194 71.4621 35.1885 71.5832 35.3156C71.7042 35.4397 71.8579 35.5018 72.0441 35.5018Z" fill="white"/>
<path d="M66.2554 5.3428C65.6893 4.96481 65.0238 4.76306 64.343 4.76306C63.891 4.76304 63.4434 4.852 63.0258 5.02486C62.6081 5.19772 62.2287 5.4511 61.909 5.77051C61.5894 6.08993 61.3358 6.46914 61.1629 6.88648C60.9899 7.30382 60.9008 7.75113 60.9008 8.20287C60.9008 8.88323 61.1027 9.54831 61.4809 10.114C61.8591 10.6797 62.3967 11.1207 63.0257 11.381C63.6546 11.6414 64.3467 11.7096 65.0145 11.5768C65.6822 11.4441 66.2955 11.1165 66.777 10.6354C67.2584 10.1544 67.5862 9.54142 67.719 8.87413C67.8519 8.20685 67.7837 7.51519 67.5232 6.88662C67.2627 6.25805 66.8215 5.72079 66.2554 5.3428Z" fill="white"/>
</g>
<g id="Vector_2">
<path d="M50.0448 1.46003e-08C51.0398 5.05625e-05 52.0124 0.29496 52.8397 0.847437C53.667 1.39991 54.3118 2.18515 54.6926 3.10384C55.0733 4.02253 55.1729 5.0334 54.9787 6.00865C54.7846 6.9839 54.3054 7.87971 53.6018 8.5828C52.8982 9.2859 52.0017 9.7647 51.0258 9.95865C50.0499 10.1526 49.0384 10.053 48.1191 9.67246C47.1999 9.2919 46.4142 8.64748 45.8614 7.82069C45.3086 6.99389 45.0136 6.02184 45.0136 5.02748C45.0136 4.36723 45.1438 3.71345 45.3966 3.10346C45.6495 2.49348 46.0201 1.93923 46.4872 1.47238C46.9544 1.00553 47.5091 0.63522 48.1195 0.382588C48.7299 0.129956 49.3841 -5.03024e-05 50.0448 1.46003e-08Z" fill="#81D726"/>
<path d="M36.5993 5.3428C36.0333 4.96481 35.3677 4.76306 34.6869 4.76306C34.2349 4.76304 33.7873 4.852 33.3697 5.02486C32.9521 5.19772 32.5726 5.4511 32.253 5.77051C31.9333 6.08993 31.6798 6.46914 31.5068 6.88648C31.3338 7.30382 31.2448 7.75113 31.2448 8.20287C31.2447 8.88323 31.4466 9.54831 31.8248 10.114C32.203 10.6797 32.7406 11.1207 33.3696 11.381C33.9986 11.6414 34.6907 11.7096 35.3584 11.5768C36.0261 11.4441 36.6395 11.1165 37.1209 10.6354C37.6023 10.1544 37.9302 9.54142 38.063 8.87413C38.1958 8.20685 38.1276 7.51519 37.8671 6.88662C37.6066 6.25805 37.1654 5.72079 36.5993 5.3428Z" fill="#81D726"/>
<path d="M23.3014 8.99681C23.7203 8.99683 24.1299 9.12101 24.4782 9.35364C24.8265 9.58626 25.098 9.9169 25.2583 10.3037C25.4187 10.6905 25.4606 11.1162 25.3788 11.5268C25.2971 11.9375 25.0953 12.3147 24.7991 12.6107C24.5028 12.9068 24.1254 13.1084 23.7144 13.19C23.3035 13.2717 22.8776 13.2298 22.4905 13.0695C22.1035 12.9093 21.7726 12.638 21.5399 12.2899C21.3071 11.9417 21.1829 11.5324 21.1829 11.1138C21.1829 10.8357 21.2377 10.5604 21.3441 10.3036C21.4506 10.0467 21.6066 9.81334 21.8033 9.61676C22.0001 9.42018 22.2336 9.26425 22.4906 9.15788C22.7477 9.0515 23.0232 8.99678 23.3014 8.99681Z" fill="#81D726"/>
<path d="M14.122 12.969C13.8607 12.7945 13.5536 12.7014 13.2394 12.7014C12.818 12.7015 12.4139 12.8688 12.116 13.1665C11.8181 13.4642 11.6507 13.868 11.6506 14.2891C11.6506 14.6031 11.7438 14.9101 11.9184 15.1712C12.093 15.4323 12.3411 15.6358 12.6314 15.7559C12.9217 15.8761 13.2411 15.9075 13.5493 15.8463C13.8575 15.785 14.1406 15.6338 14.3627 15.4118C14.5849 15.1897 14.7362 14.9068 14.7975 14.5989C14.8588 14.2909 14.8274 13.9716 14.7071 13.6815C14.5869 13.3914 14.3833 13.1435 14.122 12.969Z" fill="#81D726"/>
<path d="M66.2554 5.3428C65.6894 4.96481 65.0238 4.76306 64.343 4.76306C63.891 4.76304 63.4434 4.852 63.0258 5.02486C62.6082 5.19772 62.2287 5.4511 61.9091 5.77051C61.5894 6.08993 61.3359 6.46914 61.1629 6.88648C60.9899 7.30382 60.9009 7.75113 60.9009 8.20287C60.9008 8.88323 61.1027 9.54831 61.4809 10.114C61.8591 10.6797 62.3967 11.1207 63.0257 11.381C63.6547 11.6414 64.3468 11.7096 65.0145 11.5768C65.6822 11.4441 66.2956 11.1165 66.777 10.6354C67.2584 10.1544 67.5862 9.54142 67.7191 8.87413C67.8519 8.20685 67.7837 7.51519 67.5232 6.88662C67.2627 6.25805 66.8215 5.72079 66.2554 5.3428Z" fill="#81D726"/>
</g>
</g>
</svg>
