<svg width="70" height="96" viewBox="0 0 70 96" fill="none" xmlns="http://www.w3.org/2000/svg">
    <g id="ri_logo">
        <g id="Vector_03">
            <path
                d="M70 7.44291C70 3.33306 66.6132 0 62.4375 0C58.2613 0 54.8745 3.33306 54.8745 7.44291C54.8745 11.5527 58.2613 14.8858 62.4375 14.8858C66.6132 14.8858 70 11.5527 70 7.44291Z"
                fill="white" />
            <path fillRule="evenodd" clipRule="evenodd"
                d="M22.12 45.7877L34.1771 63.8616H48.6428L34.8952 43.6893C42.0457 41.0287 46.9523 35.3016 46.9523 26.1834V26.0211C46.9523 20.694 45.2677 16.2596 42.1286 13.112C38.4351 9.39637 32.8869 7.37913 25.7305 7.37913H0.00878906V63.8616H12.3896V45.7877H22.12ZM24.6881 18.5956C30.7137 18.5956 34.4125 21.3374 34.4125 26.6646V26.8269C34.4125 31.5859 30.9609 34.8146 24.9294 34.8146H12.3896V18.5956H24.6881Z"
                fill="white" />
            <path d="M69.0164 20.6129H56.8004V63.8616H69.0164V20.6129Z" fill="white" />
        </g>
        <circle id="Vector_02" cx="62.5088" cy="7.5" r="4.5" fill="#81D726" />
        <g id="Vector_01">
            <path
                d="M33.4833 78.874C33.9513 79.3073 34.558 79.524 35.3033 79.524C36.066 79.524 36.6727 79.3073 37.1233 78.874C37.5913 78.4233 37.8253 77.86 37.8253 77.184C37.8253 76.5427 37.5913 76.0227 37.1233 75.624C36.6553 75.208 36.0486 75 35.3033 75C34.558 75 33.9513 75.2167 33.4833 75.65C33.0153 76.0833 32.7813 76.6207 32.7813 77.262C32.7813 77.9033 33.0153 78.4407 33.4833 78.874Z"
                fill="white" />
            <path fillRule="evenodd" clipRule="evenodd"
                d="M23.3942 95.67C21.9035 95.67 20.5775 95.358 19.4162 94.734C18.2722 94.11 17.3622 93.2607 16.6862 92.186C16.0275 91.094 15.6982 89.8547 15.6982 88.468C15.6982 87.064 16.0275 85.8247 16.6862 84.75C17.3622 83.658 18.2722 82.8087 19.4162 82.202C20.5775 81.578 21.9035 81.266 23.3942 81.266C24.8675 81.266 26.1849 81.578 27.3462 82.202C28.5075 82.8087 29.4175 83.6493 30.0762 84.724C30.7349 85.7987 31.0642 87.0467 31.0642 88.468C31.0642 89.8547 30.7349 91.094 30.0762 92.186C29.4175 93.2607 28.5075 94.11 27.3462 94.734C26.1849 95.358 24.8675 95.67 23.3942 95.67ZM23.3942 92.342C24.0702 92.342 24.6769 92.186 25.2142 91.874C25.7515 91.562 26.1762 91.12 26.4882 90.548C26.8002 89.9587 26.9562 89.2653 26.9562 88.468C26.9562 87.6533 26.8002 86.96 26.4882 86.388C26.1762 85.816 25.7515 85.374 25.2142 85.062C24.6769 84.75 24.0702 84.594 23.3942 84.594C22.7182 84.594 22.1115 84.75 21.5742 85.062C21.0369 85.374 20.6035 85.816 20.2742 86.388C19.9622 86.96 19.8062 87.6533 19.8062 88.468C19.8062 89.2653 19.9622 89.9587 20.2742 90.548C20.6035 91.12 21.0369 91.562 21.5742 91.874C22.1115 92.186 22.7182 92.342 23.3942 92.342Z"
                fill="white" />
            <path
                d="M5.87601 95.462L0 81.474H4.186L8.05301 90.9975L12.064 81.474H15.964L10.062 95.462H5.87601Z"
                fill="white" />
            <path
                d="M47.3556 95.67C45.8476 95.67 44.5043 95.3667 43.3256 94.76C42.147 94.136 41.2196 93.278 40.5436 92.186C39.885 91.094 39.5556 89.8547 39.5556 88.468C39.5556 87.064 39.885 85.8247 40.5436 84.75C41.2196 83.658 42.147 82.8087 43.3256 82.202C44.5043 81.578 45.8476 81.266 47.3556 81.266C48.829 81.266 50.1116 81.578 51.2036 82.202C52.2956 82.8087 53.1016 83.684 53.6216 84.828L50.4756 86.518C50.1116 85.8593 49.6523 85.374 49.0976 85.062C48.5603 84.75 47.971 84.594 47.3296 84.594C46.6363 84.594 46.0123 84.75 45.4576 85.062C44.903 85.374 44.461 85.816 44.1316 86.388C43.8196 86.96 43.6636 87.6533 43.6636 88.468C43.6636 89.2827 43.8196 89.976 44.1316 90.548C44.461 91.12 44.903 91.562 45.4576 91.874C46.0123 92.186 46.6363 92.342 47.3296 92.342C47.971 92.342 48.5603 92.1947 49.0976 91.9C49.6523 91.588 50.1116 91.094 50.4756 90.418L53.6216 92.134C53.1016 93.2607 52.2956 94.136 51.2036 94.76C50.1116 95.3667 48.829 95.67 47.3556 95.67Z"
                fill="white" />
            <path fillRule="evenodd" clipRule="evenodd"
                d="M58.0092 94.734C59.2225 95.358 60.6266 95.67 62.2212 95.67C63.4866 95.67 64.6046 95.4793 65.5752 95.098C66.5459 94.6993 67.3519 94.136 67.9932 93.408L65.8352 91.068C65.3672 91.5187 64.8472 91.8567 64.2752 92.082C63.7206 92.3073 63.0706 92.42 62.3252 92.42C61.4932 92.42 60.7652 92.2727 60.1412 91.978C59.5345 91.666 59.0579 91.224 58.7112 90.652C58.5319 90.3311 58.4013 89.9844 58.3197 89.612H68.9032C68.9205 89.4387 68.9379 89.2567 68.9552 89.066L68.9604 89.0006C68.9743 88.8196 68.9812 88.6594 68.9812 88.52C68.9812 87.012 68.6606 85.7207 68.0192 84.646C67.3779 83.554 66.5025 82.722 65.3932 82.15C64.3012 81.5607 63.0706 81.266 61.7012 81.266C60.2799 81.266 59.0059 81.578 57.8792 82.202C56.7525 82.8087 55.8599 83.658 55.2012 84.75C54.5599 85.8247 54.2392 87.064 54.2392 88.468C54.2392 89.8547 54.5686 91.094 55.2272 92.186C55.8859 93.2607 56.8132 94.11 58.0092 94.734ZM58.2729 87.246H65.1613C65.0955 86.8053 64.9648 86.4067 64.7692 86.05C64.4745 85.5127 64.0672 85.0967 63.5472 84.802C63.0272 84.49 62.4205 84.334 61.7272 84.334C61.0339 84.334 60.4185 84.49 59.8812 84.802C59.3612 85.0967 58.9539 85.5213 58.6592 86.076C58.4691 86.4227 58.3403 86.8127 58.2729 87.246Z"
                fill="white" />
            <path d="M33.2753 81.474V95.462H37.3313V81.474H33.2753Z" fill="white" />
        </g>
    </g>
</svg>